<svg width="286" height="50" viewBox="0 0 286 50" fill="none" xmlns="http://www.w3.org/2000/svg">
<path d="M14.2108 38.2568C11.985 38.2568 9.98752 37.7289 8.21831 36.6731C6.47762 35.6173 5.09364 34.1905 4.06635 32.3927C3.0676 30.595 2.56822 28.5689 2.56822 26.3146C2.56822 24.0317 3.03906 21.9914 3.98074 20.1937C4.92242 18.3959 6.2208 16.9834 7.87588 15.9561C9.53095 14.9003 11.4286 14.3724 13.5688 14.3724C15.3951 14.3724 17.0644 14.7291 18.5768 15.4425C20.0892 16.1273 21.4018 17.1831 22.5147 18.6099C22.743 18.8953 22.8286 19.1949 22.7716 19.5088C22.7145 19.8227 22.529 20.0795 22.2151 20.2793C21.9583 20.479 21.6729 20.5646 21.359 20.5361C21.0451 20.479 20.7741 20.3078 20.5458 20.0225C18.7195 17.8537 16.3938 16.7694 13.5688 16.7694C11.8852 16.7694 10.4013 17.1831 9.11718 18.0107C7.86161 18.8382 6.87712 19.9654 6.16373 21.3922C5.47887 22.819 5.13644 24.4598 5.13644 26.3146C5.13644 28.1124 5.52167 29.7389 6.29214 31.1942C7.06261 32.621 8.11843 33.7624 9.45961 34.6185C10.8293 35.446 12.4131 35.8598 14.2108 35.8598C15.3808 35.8598 16.4794 35.6886 17.5067 35.3462C18.5625 35.0037 19.4757 34.4758 20.2461 33.7624C20.503 33.5341 20.7883 33.4057 21.1022 33.3772C21.4161 33.3487 21.6872 33.4485 21.9155 33.6768C22.2008 33.9337 22.3435 34.2333 22.3435 34.5757C22.3721 34.8896 22.2579 35.1607 22.0011 35.389C19.918 37.3009 17.3212 38.2568 14.2108 38.2568ZM39.9261 38.2568C37.6433 38.2568 35.5887 37.7432 33.7624 36.7159C31.9646 35.6601 30.5379 34.2333 29.482 32.4355C28.4547 30.6092 27.9411 28.5689 27.9411 26.3146C27.9411 24.0317 28.4547 21.9914 29.482 20.1937C30.5379 18.3674 31.9646 16.9406 33.7624 15.9133C35.5887 14.8575 37.6433 14.3296 39.9261 14.3296C42.209 14.3296 44.2493 14.8575 46.0471 15.9133C47.8448 16.9406 49.2573 18.3674 50.2846 20.1937C51.3404 21.9914 51.8684 24.0317 51.8684 26.3146C51.8684 28.5689 51.3404 30.6092 50.2846 32.4355C49.2573 34.2333 47.8448 35.6601 46.0471 36.7159C44.2493 37.7432 42.209 38.2568 39.9261 38.2568ZM39.9261 35.8598C41.7239 35.8598 43.3219 35.446 44.7201 34.6185C46.1469 33.7624 47.2598 32.621 48.0588 31.1942C48.8864 29.7389 49.3001 28.0981 49.3001 26.2718C49.3001 24.474 48.8864 22.8618 48.0588 21.435C47.2598 19.9797 46.1469 18.8382 44.7201 18.0107C43.3219 17.1546 41.7239 16.7266 39.9261 16.7266C38.1569 16.7266 36.5589 17.1546 35.1321 18.0107C33.7053 18.8382 32.5782 19.9797 31.7506 21.435C30.9231 22.8618 30.5093 24.4883 30.5093 26.3146C30.5093 28.1124 30.9231 29.7389 31.7506 31.1942C32.5782 32.621 33.7053 33.7624 35.1321 34.6185C36.5589 35.446 38.1569 35.8598 39.9261 35.8598ZM78.5227 38C78.1517 38 77.8378 37.8859 77.581 37.6576C77.3527 37.4007 77.2386 37.0869 77.2386 36.7159V25.2017C77.2386 23.3183 76.8676 21.7631 76.1257 20.5361C75.4123 19.3091 74.4278 18.3959 73.1722 17.7967C71.9452 17.1689 70.5469 16.855 68.9775 16.855C67.4365 16.855 66.0525 17.1546 64.8255 17.7539C63.5985 18.3246 62.6282 19.1236 61.9148 20.1509C61.2015 21.1782 60.8448 22.3339 60.8448 23.618H58.7046C58.8187 21.8487 59.3466 20.265 60.2883 18.8668C61.23 17.44 62.457 16.3271 63.9694 15.5281C65.4818 14.7005 67.1512 14.2868 68.9775 14.2868C71.032 14.2868 72.8726 14.7148 74.4991 15.5709C76.1542 16.3984 77.4526 17.6254 78.3943 19.252C79.3359 20.85 79.8068 22.8332 79.8068 25.2017V36.7159C79.8068 37.0869 79.6784 37.4007 79.4216 37.6576C79.1933 37.8859 78.8936 38 78.5227 38ZM59.5606 38C59.1897 38 58.8758 37.8859 58.619 37.6576C58.3907 37.4007 58.2765 37.0869 58.2765 36.7159V15.8705C58.2765 15.471 58.3907 15.1571 58.619 14.9288C58.8758 14.7005 59.1897 14.5864 59.5606 14.5864C59.9601 14.5864 60.274 14.7005 60.5023 14.9288C60.7306 15.1571 60.8448 15.471 60.8448 15.8705V36.7159C60.8448 37.0869 60.7306 37.4007 60.5023 37.6576C60.274 37.8859 59.9601 38 59.5606 38ZM97.4355 38.214C95.1812 38.214 93.1694 37.7146 91.4002 36.7159C89.6595 35.6886 88.2898 34.2761 87.2911 32.4783C86.2923 30.6806 85.7929 28.626 85.7929 26.3146C85.7929 23.9747 86.2638 21.9201 87.2055 20.1509C88.1471 18.3531 89.4455 16.9406 91.1006 15.9133C92.7557 14.886 94.6533 14.3724 96.7935 14.3724C98.9051 14.3724 100.774 14.8717 102.401 15.8705C104.027 16.8407 105.297 18.1962 106.21 19.9368C107.123 21.649 107.58 23.6322 107.58 25.8866C107.58 26.2575 107.466 26.5571 107.238 26.7854C107.009 26.9852 106.71 27.0851 106.339 27.0851H87.5051V24.8593H107.024L105.14 26.2718C105.197 24.417 104.883 22.7762 104.199 21.3494C103.514 19.9226 102.529 18.8097 101.245 18.0107C99.9895 17.1831 98.5056 16.7694 96.7935 16.7694C95.167 16.7694 93.7116 17.1831 92.4275 18.0107C91.1719 18.8097 90.1732 19.9226 89.4313 21.3494C88.7179 22.7762 88.3612 24.4312 88.3612 26.3146C88.3612 28.1694 88.7464 29.8102 89.5169 31.237C90.2873 32.6638 91.3574 33.791 92.7271 34.6185C94.0969 35.4175 95.6663 35.817 97.4355 35.817C98.5484 35.817 99.6613 35.6315 100.774 35.2606C101.916 34.8611 102.815 34.3474 103.471 33.7196C103.699 33.4913 103.97 33.3772 104.284 33.3772C104.627 33.3487 104.912 33.4343 105.14 33.634C105.454 33.8908 105.611 34.1762 105.611 34.4901C105.64 34.804 105.511 35.0893 105.226 35.3462C104.313 36.1737 103.114 36.8586 101.63 37.4007C100.175 37.9429 98.7767 38.214 97.4355 38.214ZM122.683 38.2568C120.457 38.2568 118.46 37.7289 116.691 36.6731C114.95 35.6173 113.566 34.1905 112.539 32.3927C111.54 30.595 111.04 28.5689 111.04 26.3146C111.04 24.0317 111.511 21.9914 112.453 20.1937C113.395 18.3959 114.693 16.9834 116.348 15.9561C118.003 14.9003 119.901 14.3724 122.041 14.3724C123.867 14.3724 125.537 14.7291 127.049 15.4425C128.561 16.1273 129.874 17.1831 130.987 18.6099C131.215 18.8953 131.301 19.1949 131.244 19.5088C131.187 19.8227 131.001 20.0795 130.687 20.2793C130.43 20.479 130.145 20.5646 129.831 20.5361C129.517 20.479 129.246 20.3078 129.018 20.0225C127.192 17.8537 124.866 16.7694 122.041 16.7694C120.357 16.7694 118.874 17.1831 117.589 18.0107C116.334 18.8382 115.349 19.9654 114.636 21.3922C113.951 22.819 113.609 24.4598 113.609 26.3146C113.609 28.1124 113.994 29.7389 114.764 31.1942C115.535 32.621 116.591 33.7624 117.932 34.6185C119.302 35.446 120.885 35.8598 122.683 35.8598C123.853 35.8598 124.952 35.6886 125.979 35.3462C127.035 35.0037 127.948 34.4758 128.718 33.7624C128.975 33.5341 129.261 33.4057 129.574 33.3772C129.888 33.3487 130.159 33.4485 130.388 33.6768C130.673 33.9337 130.816 34.2333 130.816 34.5757C130.844 34.8896 130.73 35.1607 130.473 35.389C128.39 37.3009 125.793 38.2568 122.683 38.2568ZM147.285 38C145.716 37.9715 144.318 37.6148 143.091 36.9299C141.864 36.2165 140.908 35.2463 140.223 34.0193C139.538 32.7637 139.196 31.3512 139.196 29.7817V8.46546C139.196 8.06596 139.31 7.75207 139.538 7.52378C139.795 7.26696 140.109 7.13855 140.48 7.13855C140.879 7.13855 141.193 7.26696 141.421 7.52378C141.678 7.75207 141.807 8.06596 141.807 8.46546V29.7817C141.807 31.4368 142.32 32.7922 143.348 33.848C144.375 34.8753 145.702 35.389 147.328 35.389H148.27C148.669 35.389 148.983 35.5174 149.212 35.7742C149.468 36.0025 149.597 36.3164 149.597 36.7159C149.597 37.0869 149.468 37.4007 149.212 37.6576C148.983 37.8859 148.669 38 148.27 38H147.285ZM135.857 17.7539C135.514 17.7539 135.229 17.654 135.001 17.4542C134.801 17.2259 134.701 16.9406 134.701 16.5982C134.701 16.2557 134.801 15.9846 135.001 15.7849C135.229 15.5566 135.514 15.4425 135.857 15.4425H147.457C147.799 15.4425 148.07 15.5566 148.27 15.7849C148.498 15.9846 148.612 16.2557 148.612 16.5982C148.612 16.9406 148.498 17.2259 148.27 17.4542C148.07 17.654 147.799 17.7539 147.457 17.7539H135.857Z" fill="#279EFF"/>
<path d="M166.099 38.1712C164.016 38.1712 162.147 37.6576 160.492 36.6303C158.837 35.5745 157.524 34.1619 156.554 32.3927C155.612 30.595 155.142 28.5689 155.142 26.3146C155.142 24.0603 155.655 22.0342 156.683 20.2365C157.738 18.4387 159.151 17.0262 160.92 15.9989C162.718 14.9431 164.73 14.4152 166.955 14.4152C169.181 14.4152 171.179 14.9431 172.948 15.9989C174.717 17.0262 176.115 18.4387 177.143 20.2365C178.199 22.0342 178.726 24.0603 178.726 26.3146H177.057C177.057 28.5689 176.572 30.595 175.602 32.3927C174.66 34.1619 173.362 35.5745 171.707 36.6303C170.052 37.6576 168.182 38.1712 166.099 38.1712ZM166.955 34.3189C168.411 34.3189 169.709 33.9765 170.851 33.2916C171.992 32.5782 172.891 31.6223 173.547 30.4237C174.204 29.1967 174.532 27.827 174.532 26.3146C174.532 24.7737 174.204 23.4039 173.547 22.2054C172.891 20.9784 171.992 20.0225 170.851 19.3376C169.709 18.6242 168.411 18.2675 166.955 18.2675C165.529 18.2675 164.23 18.6242 163.06 19.3376C161.919 20.0225 161.006 20.9784 160.321 22.2054C159.665 23.4039 159.336 24.7737 159.336 26.3146C159.336 27.827 159.665 29.1967 160.321 30.4237C161.006 31.6223 161.919 32.5782 163.06 33.2916C164.23 33.9765 165.529 34.3189 166.955 34.3189ZM176.543 38.0428C175.916 38.0428 175.388 37.8431 174.96 37.4436C174.56 37.0155 174.36 36.4876 174.36 35.8598V29.3109L175.174 24.7737L178.726 26.3146V35.8598C178.726 36.4876 178.512 37.0155 178.084 37.4436C177.685 37.8431 177.171 38.0428 176.543 38.0428ZM215.957 38.0428C215.329 38.0428 214.802 37.8431 214.374 37.4436C213.974 37.0155 213.774 36.4876 213.774 35.8598V23.618C213.774 21.8202 213.332 20.4933 212.447 19.6372C211.563 18.7526 210.407 18.3103 208.98 18.3103C207.496 18.3103 206.269 18.824 205.299 19.8512C204.357 20.8785 203.887 22.1912 203.887 23.7892H200.334C200.334 21.9344 200.733 20.3078 201.532 18.9096C202.331 17.4828 203.444 16.3699 204.871 15.5709C206.326 14.7719 207.982 14.3724 209.836 14.3724C211.463 14.3724 212.904 14.7291 214.16 15.4425C215.415 16.1559 216.385 17.2117 217.07 18.6099C217.784 19.9797 218.14 21.649 218.14 23.618V35.8598C218.14 36.4876 217.941 37.0155 217.541 37.4436C217.142 37.8431 216.614 38.0428 215.957 38.0428ZM187.407 38.0428C186.779 38.0428 186.252 37.8431 185.823 37.4436C185.424 37.0155 185.224 36.4876 185.224 35.8598V16.8122C185.224 16.1559 185.424 15.6279 185.823 15.2284C186.252 14.8289 186.779 14.6292 187.407 14.6292C188.064 14.6292 188.591 14.8289 188.991 15.2284C189.39 15.6279 189.59 16.1559 189.59 16.8122V35.8598C189.59 36.4876 189.39 37.0155 188.991 37.4436C188.591 37.8431 188.064 38.0428 187.407 38.0428ZM201.704 38.0428C201.076 38.0428 200.548 37.8431 200.12 37.4436C199.72 37.0155 199.521 36.4876 199.521 35.8598V23.618C199.521 21.8202 199.078 20.4933 198.194 19.6372C197.309 18.7526 196.153 18.3103 194.727 18.3103C193.243 18.3103 192.016 18.824 191.046 19.8512C190.075 20.8785 189.59 22.1912 189.59 23.7892H186.894C186.894 21.9344 187.265 20.3078 188.006 18.9096C188.748 17.4828 189.776 16.3699 191.088 15.5709C192.401 14.7719 193.899 14.3724 195.583 14.3724C197.209 14.3724 198.65 14.7291 199.906 15.4425C201.161 16.1559 202.132 17.2117 202.817 18.6099C203.53 19.9797 203.887 21.649 203.887 23.618V35.8598C203.887 36.4876 203.687 37.0155 203.287 37.4436C202.888 37.8431 202.36 38.0428 201.704 38.0428ZM252.572 23.3611C252.572 21.649 252.986 20.1223 253.813 18.7811C254.67 17.4114 255.811 16.3271 257.238 15.5281C258.665 14.7291 260.234 14.3296 261.946 14.3296C263.658 14.3296 264.928 14.6149 265.756 15.1856C266.612 15.7278 266.94 16.3841 266.74 17.1546C266.655 17.5541 266.483 17.868 266.227 18.0963C265.998 18.296 265.727 18.4245 265.413 18.4815C265.099 18.5386 264.757 18.5243 264.386 18.4387C262.56 18.0678 260.919 18.0392 259.464 18.3531C258.008 18.667 256.853 19.252 255.996 20.1081C255.169 20.9641 254.755 22.0485 254.755 23.3611H252.572ZM252.615 38C251.93 38 251.402 37.8288 251.031 37.4864C250.66 37.1154 250.475 36.5732 250.475 35.8598V16.7266C250.475 16.0417 250.66 15.5138 251.031 15.1428C251.402 14.7719 251.93 14.5864 252.615 14.5864C253.328 14.5864 253.856 14.7719 254.199 15.1428C254.57 15.4853 254.755 16.0132 254.755 16.7266V35.8598C254.755 36.5447 254.57 37.0726 254.199 37.4436C253.856 37.8145 253.328 38 252.615 38Z" fill="#279EFF"/>
<path d="M247.108 27.5446C243.409 35.2324 229.52 36.2131 228.932 36.2468C228.777 36.2568 228.623 36.2271 228.484 36.1603C228.345 36.0935 228.226 35.9917 228.137 35.864C227.796 35.3838 219.895 23.9189 223.594 16.2311C224.464 14.4267 225.984 13.0262 227.818 12.3367C229.652 11.6472 231.652 11.7251 233.378 12.5533C235.546 13.5962 236.975 15.4847 237.365 17.7024C239.341 16.6231 241.708 16.561 243.876 17.6039C245.6 18.4362 246.909 19.9502 247.515 21.8138C248.121 23.6774 247.975 25.7383 247.108 27.5446Z" fill="#EE4848"/>
</svg>
