<svg width="123" height="22" viewBox="0 0 123 22" fill="none" xmlns="http://www.w3.org/2000/svg">
<path d="M6.27812 16.1102C5.32302 16.1102 4.46588 15.8837 3.7067 15.4306C2.95976 14.9776 2.36589 14.3653 1.92507 13.5939C1.4965 12.8225 1.28221 11.9531 1.28221 10.9857C1.28221 10.0061 1.48425 9.13063 1.88834 8.3592C2.29242 7.58777 2.84956 6.98165 3.55976 6.54084C4.26996 6.08778 5.08425 5.86125 6.00261 5.86125C6.78628 5.86125 7.50261 6.01431 8.15159 6.32043C8.80057 6.61431 9.36383 7.06737 9.84138 7.67961C9.93934 7.80206 9.97607 7.93063 9.95158 8.06532C9.92709 8.20002 9.8475 8.31022 9.71281 8.39593C9.60261 8.48165 9.48016 8.51838 9.34546 8.50614C9.21077 8.48165 9.09444 8.40818 8.99648 8.28573C8.21281 7.35512 7.21485 6.88982 6.00261 6.88982C5.28017 6.88982 4.64343 7.06737 4.09241 7.42247C3.55364 7.77757 3.13119 8.26124 2.82507 8.87348C2.53119 9.48573 2.38425 10.1898 2.38425 10.9857C2.38425 11.7572 2.54956 12.4551 2.88017 13.0796C3.21078 13.6918 3.66384 14.1816 4.23935 14.549C4.82711 14.9041 5.5067 15.0816 6.27812 15.0816C6.78016 15.0816 7.25159 15.0082 7.6924 14.8612C8.14547 14.7143 8.5373 14.4878 8.86791 14.1816C8.97812 14.0837 9.10057 14.0286 9.23526 14.0163C9.36995 14.0041 9.48628 14.0469 9.58424 14.1449C9.70669 14.2551 9.76791 14.3837 9.76791 14.5306C9.78016 14.6653 9.73118 14.7816 9.62097 14.8796C8.7271 15.7 7.61281 16.1102 6.27812 16.1102ZM17.3127 16.1102C16.3331 16.1102 15.4515 15.8898 14.6678 15.449C13.8964 14.9959 13.2841 14.3837 12.8311 13.6122C12.3903 12.8286 12.1699 11.9531 12.1699 10.9857C12.1699 10.0061 12.3903 9.13063 12.8311 8.3592C13.2841 7.57553 13.8964 6.96328 14.6678 6.52247C15.4515 6.06941 16.3331 5.84288 17.3127 5.84288C18.2923 5.84288 19.1678 6.06941 19.9392 6.52247C20.7107 6.96328 21.3168 7.57553 21.7576 8.3592C22.2107 9.13063 22.4372 10.0061 22.4372 10.9857C22.4372 11.9531 22.2107 12.8286 21.7576 13.6122C21.3168 14.3837 20.7107 14.9959 19.9392 15.449C19.1678 15.8898 18.2923 16.1102 17.3127 16.1102ZM17.3127 15.0816C18.0841 15.0816 18.7699 14.9041 19.3699 14.549C19.9821 14.1816 20.4596 13.6918 20.8025 13.0796C21.1576 12.4551 21.3352 11.751 21.3352 10.9674C21.3352 10.1959 21.1576 9.5041 20.8025 8.89185C20.4596 8.26736 19.9821 7.77757 19.3699 7.42247C18.7699 7.05512 18.0841 6.87145 17.3127 6.87145C16.5535 6.87145 15.8678 7.05512 15.2556 7.42247C14.6433 7.77757 14.1597 8.26736 13.8046 8.89185C13.4495 9.5041 13.2719 10.2021 13.2719 10.9857C13.2719 11.7572 13.4495 12.4551 13.8046 13.0796C14.1597 13.6918 14.6433 14.1816 15.2556 14.549C15.8678 14.9041 16.5535 15.0816 17.3127 15.0816ZM33.8747 16C33.7155 16 33.5808 15.951 33.4706 15.8531C33.3727 15.7429 33.3237 15.6082 33.3237 15.449V10.5082C33.3237 9.70001 33.1645 9.03267 32.8461 8.50614C32.54 7.97961 32.1176 7.58777 31.5788 7.33063C31.0523 7.06124 30.4523 6.92655 29.7788 6.92655C29.1176 6.92655 28.5237 7.05512 27.9972 7.31226C27.4706 7.55716 27.0543 7.90002 26.7482 8.34083C26.4421 8.78165 26.289 9.27757 26.289 9.82858H25.3707C25.4196 9.0694 25.6462 8.38981 26.0502 7.78981C26.4543 7.17757 26.9809 6.70002 27.6298 6.35716C28.2788 6.00206 28.9951 5.82451 29.7788 5.82451C30.6604 5.82451 31.4502 6.00818 32.1482 6.37553C32.8584 6.73063 33.4155 7.25716 33.8196 7.95512C34.2237 8.64083 34.4257 9.49185 34.4257 10.5082V15.449C34.4257 15.6082 34.3706 15.7429 34.2604 15.8531C34.1625 15.951 34.0339 16 33.8747 16ZM25.738 16C25.5788 16 25.4441 15.951 25.3339 15.8531C25.236 15.7429 25.187 15.6082 25.187 15.449V6.5041C25.187 6.33267 25.236 6.19798 25.3339 6.10002C25.4441 6.00206 25.5788 5.95308 25.738 5.95308C25.9094 5.95308 26.0441 6.00206 26.1421 6.10002C26.24 6.19798 26.289 6.33267 26.289 6.5041V15.449C26.289 15.6082 26.24 15.7429 26.1421 15.8531C26.0441 15.951 25.9094 16 25.738 16ZM41.9903 16.0918C41.023 16.0918 40.1597 15.8776 39.4006 15.449C38.6536 15.0082 38.0659 14.402 37.6373 13.6306C37.2087 12.8592 36.9944 11.9776 36.9944 10.9857C36.9944 9.98165 37.1965 9.10001 37.6006 8.34083C38.0046 7.56941 38.5618 6.96328 39.272 6.52247C39.9822 6.08165 40.7965 5.86125 41.7148 5.86125C42.621 5.86125 43.423 6.07553 44.1209 6.5041C44.8189 6.92043 45.3638 7.50206 45.7556 8.249C46.1475 8.98369 46.3434 9.83471 46.3434 10.8021C46.3434 10.9612 46.2944 11.0898 46.1965 11.1878C46.0985 11.2735 45.9699 11.3163 45.8107 11.3163H37.7291V10.3612H46.1046L45.2965 10.9674C45.3209 10.1714 45.1863 9.46736 44.8924 8.85512C44.5985 8.24287 44.1761 7.76532 43.625 7.42247C43.0863 7.06737 42.4495 6.88982 41.7148 6.88982C41.0169 6.88982 40.3924 7.06737 39.8414 7.42247C39.3026 7.76532 38.874 8.24287 38.5557 8.85512C38.2495 9.46736 38.0965 10.1776 38.0965 10.9857C38.0965 11.7816 38.2618 12.4857 38.5924 13.098C38.923 13.7102 39.3822 14.1939 39.9699 14.549C40.5577 14.8918 41.2312 15.0633 41.9903 15.0633C42.4679 15.0633 42.9454 14.9837 43.423 14.8245C43.9128 14.6531 44.2985 14.4327 44.5801 14.1633C44.6781 14.0653 44.7944 14.0163 44.9291 14.0163C45.076 14.0041 45.1985 14.0408 45.2965 14.1265C45.4312 14.2367 45.4985 14.3592 45.4985 14.4939C45.5107 14.6286 45.4556 14.751 45.3332 14.8612C44.9414 15.2163 44.4271 15.5102 43.7903 15.7429C43.1658 15.9755 42.5659 16.0918 41.9903 16.0918ZM52.8242 16.1102C51.8691 16.1102 51.0119 15.8837 50.2528 15.4306C49.5058 14.9776 48.9119 14.3653 48.4711 13.5939C48.0426 12.8225 47.8283 11.9531 47.8283 10.9857C47.8283 10.0061 48.0303 9.13063 48.4344 8.3592C48.8385 7.58777 49.3956 6.98165 50.1058 6.54084C50.816 6.08778 51.6303 5.86125 52.5487 5.86125C53.3323 5.86125 54.0487 6.01431 54.6976 6.32043C55.3466 6.61431 55.9099 7.06737 56.3874 7.67961C56.4854 7.80206 56.5221 7.93063 56.4976 8.06532C56.4732 8.20002 56.3936 8.31022 56.2589 8.39593C56.1487 8.48165 56.0262 8.51838 55.8915 8.50614C55.7568 8.48165 55.6405 8.40818 55.5425 8.28573C54.7589 7.35512 53.7609 6.88982 52.5487 6.88982C51.8262 6.88982 51.1895 7.06737 50.6385 7.42247C50.0997 7.77757 49.6772 8.26124 49.3711 8.87348C49.0772 9.48573 48.9303 10.1898 48.9303 10.9857C48.9303 11.7572 49.0956 12.4551 49.4262 13.0796C49.7568 13.6918 50.2099 14.1816 50.7854 14.549C51.3732 14.9041 52.0528 15.0816 52.8242 15.0816C53.3262 15.0816 53.7976 15.0082 54.2385 14.8612C54.6915 14.7143 55.0834 14.4878 55.414 14.1816C55.5242 14.0837 55.6466 14.0286 55.7813 14.0163C55.916 14.0041 56.0323 14.0469 56.1303 14.1449C56.2527 14.2551 56.314 14.3837 56.314 14.5306C56.3262 14.6653 56.2772 14.7816 56.167 14.8796C55.2732 15.7 54.1589 16.1102 52.8242 16.1102ZM63.3812 16C62.7078 15.9878 62.1078 15.8347 61.5812 15.5408C61.0547 15.2347 60.6445 14.8184 60.3506 14.2918C60.0567 13.7531 59.9098 13.1469 59.9098 12.4735V3.32656C59.9098 3.15513 59.9588 3.02044 60.0567 2.92248C60.1669 2.81227 60.3016 2.75717 60.4608 2.75717C60.6322 2.75717 60.7669 2.81227 60.8649 2.92248C60.9751 3.02044 61.0302 3.15513 61.0302 3.32656V12.4735C61.0302 13.1837 61.2506 13.7653 61.6914 14.2184C62.1322 14.6592 62.7016 14.8796 63.3996 14.8796H63.8037C63.9751 14.8796 64.1098 14.9347 64.2078 15.0449C64.318 15.1429 64.3731 15.2776 64.3731 15.449C64.3731 15.6082 64.318 15.7429 64.2078 15.8531C64.1098 15.951 63.9751 16 63.8037 16H63.3812ZM58.4772 7.31226C58.3302 7.31226 58.2078 7.26941 58.1098 7.18369C58.0241 7.08573 57.9812 6.96328 57.9812 6.81635C57.9812 6.66941 58.0241 6.55308 58.1098 6.46737C58.2078 6.36941 58.3302 6.32043 58.4772 6.32043H63.4547C63.6016 6.32043 63.718 6.36941 63.8037 6.46737C63.9016 6.55308 63.9506 6.66941 63.9506 6.81635C63.9506 6.96328 63.9016 7.08573 63.8037 7.18369C63.718 7.26941 63.6016 7.31226 63.4547 7.31226H58.4772Z" fill="#73BCF8"/>
<path d="M71.5464 16.0735C70.628 16.0735 69.8076 15.8531 69.0852 15.4122C68.3627 14.9714 67.7934 14.3653 67.377 13.5939C66.9607 12.8225 66.7525 11.9531 66.7525 10.9857C66.7525 10.0061 66.973 9.13675 67.4138 8.37757C67.8668 7.60614 68.4729 7.00002 69.2321 6.5592C70.0036 6.10614 70.8668 5.87961 71.8219 5.87961C72.7893 5.87961 73.6525 6.10614 74.4117 6.5592C75.1709 7.00002 75.7709 7.60614 76.2117 8.37757C76.6648 9.14899 76.8974 10.0184 76.9097 10.9857L76.2484 11.151C76.2484 12.0816 76.0403 12.9204 75.624 13.6674C75.2076 14.4143 74.6444 15.002 73.9342 15.4306C73.2362 15.8592 72.4403 16.0735 71.5464 16.0735ZM71.8219 14.5673C72.4831 14.5673 73.0709 14.4143 73.5852 14.1082C74.0995 13.7898 74.5035 13.3612 74.7974 12.8225C75.1035 12.2714 75.2566 11.6592 75.2566 10.9857C75.2566 10.3 75.1035 9.68777 74.7974 9.14899C74.5035 8.59797 74.0995 8.1694 73.5852 7.86328C73.0709 7.54492 72.4831 7.38573 71.8219 7.38573C71.1852 7.38573 70.6036 7.54492 70.077 7.86328C69.5505 8.1694 69.1342 8.59797 68.828 9.14899C68.5342 9.68777 68.3872 10.3 68.3872 10.9857C68.3872 11.6592 68.5342 12.2714 68.828 12.8225C69.1342 13.3612 69.5505 13.7898 70.077 14.1082C70.6036 14.4143 71.1852 14.5673 71.8219 14.5673ZM76.0464 16.0184C75.8015 16.0184 75.5995 15.9388 75.4403 15.7796C75.2811 15.6204 75.2015 15.4184 75.2015 15.1735V12.2347L75.5505 10.4714L76.9097 10.9857V15.1735C76.9097 15.4184 76.8239 15.6204 76.6525 15.7796C76.4933 15.9388 76.2913 16.0184 76.0464 16.0184ZM93.0138 16.0184C92.7689 16.0184 92.5668 15.9388 92.4077 15.7796C92.2485 15.6204 92.1689 15.4184 92.1689 15.1735V9.90205C92.1689 9.09389 91.9607 8.47553 91.5444 8.04696C91.1403 7.61838 90.6138 7.4041 89.9648 7.4041C89.2791 7.4041 88.7158 7.64287 88.275 8.12042C87.8464 8.58573 87.6322 9.19185 87.6322 9.93879H86.1995C86.2117 9.13063 86.3893 8.42042 86.7322 7.80818C87.075 7.19594 87.5526 6.71839 88.1648 6.37553C88.777 6.03267 89.4689 5.86125 90.2403 5.86125C90.9505 5.86125 91.575 6.02043 92.1138 6.3388C92.6648 6.65716 93.0934 7.12247 93.3995 7.73471C93.7056 8.33471 93.8587 9.05716 93.8587 9.90205V15.1735C93.8587 15.4184 93.7791 15.6204 93.6199 15.7796C93.473 15.9388 93.2709 16.0184 93.0138 16.0184ZM80.524 16.0184C80.2791 16.0184 80.0771 15.9388 79.9179 15.7796C79.7587 15.6204 79.6791 15.4184 79.6791 15.1735V6.81635C79.6791 6.5592 79.7587 6.35716 79.9179 6.21022C80.0771 6.05104 80.2791 5.97145 80.524 5.97145C80.7811 5.97145 80.9832 6.05104 81.1301 6.21022C81.2893 6.35716 81.3689 6.5592 81.3689 6.81635V15.1735C81.3689 15.4184 81.2893 15.6204 81.1301 15.7796C80.9832 15.9388 80.7811 16.0184 80.524 16.0184ZM86.7873 16.0184C86.5424 16.0184 86.3403 15.9388 86.1811 15.7796C86.022 15.6204 85.9424 15.4184 85.9424 15.1735V9.90205C85.9424 9.09389 85.7342 8.47553 85.3179 8.04696C84.9138 7.61838 84.3873 7.4041 83.7383 7.4041C83.0526 7.4041 82.4832 7.63675 82.0301 8.10206C81.5893 8.56736 81.3689 9.16124 81.3689 9.88369H80.2669C80.2791 9.10001 80.4444 8.40818 80.7628 7.80818C81.0934 7.19594 81.5403 6.71839 82.1036 6.37553C82.6669 6.03267 83.3036 5.86125 84.0138 5.86125C84.724 5.86125 85.3485 6.02043 85.8873 6.3388C86.4383 6.65716 86.8668 7.12247 87.173 7.73471C87.4791 8.33471 87.6322 9.05716 87.6322 9.90205V15.1735C87.6322 15.4184 87.5526 15.6204 87.3934 15.7796C87.2464 15.9388 87.0444 16.0184 86.7873 16.0184ZM108.504 9.75512C108.528 9.00818 108.718 8.34083 109.073 7.75308C109.44 7.16532 109.924 6.70002 110.524 6.35716C111.124 6.01431 111.785 5.84288 112.508 5.84288C113.181 5.84288 113.683 5.94696 114.014 6.15512C114.357 6.36329 114.485 6.62655 114.4 6.94492C114.363 7.12859 114.289 7.26328 114.179 7.349C114.069 7.42247 113.94 7.46532 113.794 7.47757C113.647 7.47757 113.487 7.46532 113.316 7.44083C112.569 7.31839 111.902 7.33675 111.314 7.49594C110.726 7.65512 110.261 7.93063 109.918 8.32247C109.575 8.7143 109.404 9.19185 109.404 9.75512H108.504ZM108.559 16C108.302 16 108.1 15.9327 107.953 15.798C107.806 15.651 107.732 15.4429 107.732 15.1735V6.77961C107.732 6.52247 107.806 6.32043 107.953 6.17349C108.1 6.02655 108.302 5.95308 108.559 5.95308C108.84 5.95308 109.049 6.02655 109.183 6.17349C109.33 6.30818 109.404 6.51022 109.404 6.77961V15.1735C109.404 15.4306 109.33 15.6327 109.183 15.7796C109.049 15.9265 108.84 16 108.559 16Z" fill="#73BCF8"/>
<path d="M106.215 11.8195C104.628 15.1184 98.6683 15.5392 98.4162 15.5537C98.3495 15.558 98.2834 15.5452 98.2238 15.5166C98.1642 15.4879 98.113 15.4442 98.0747 15.3894C97.9287 15.1834 94.5382 10.2637 96.1254 6.96485C96.499 6.19059 97.1508 5.5896 97.9379 5.29374C98.7251 4.99787 99.5832 5.0313 100.324 5.38667C101.254 5.83421 101.867 6.64455 102.035 7.59617C102.883 7.13305 103.898 7.1064 104.829 7.55394C105.569 7.91106 106.13 8.56073 106.39 9.3604C106.65 10.1601 106.587 11.0445 106.215 11.8195Z" fill="#EE4848"/>
</svg>
