<svg width="68" height="68" viewBox="0 0 68 68" fill="none" xmlns="http://www.w3.org/2000/svg">
<path d="M29.8969 46.9336L17.4283 53.7103L9.67861 23.7185L22.1472 16.9418" stroke="white" stroke-width="2" stroke-linecap="round" stroke-linejoin="round"/>
<path d="M44.9487 50.1541L29.8969 46.9336L22.1472 16.9418L37.199 20.1623L44.9487 50.1541Z" stroke="white" stroke-width="2" stroke-linecap="round" stroke-linejoin="round"/>
<path d="M37.199 20.1623L49.6676 13.3856L57.4173 43.3774L44.9487 50.1541" stroke="white" stroke-width="2" stroke-linecap="round" stroke-linejoin="round"/>
<path d="M45.013 23.013C45.013 25.7127 43.4538 28.5612 41.24 31.1071C40.8274 31.5816 40.4128 32.0215 40.013 32.4219C39.6132 32.0215 39.1986 31.5816 38.786 31.1071C36.5722 28.5612 35.013 25.7127 35.013 23.013C35.013 21.6869 35.5398 20.4151 36.4775 19.4775C37.4151 18.5398 38.6869 18.013 40.013 18.013C41.3391 18.013 42.6109 18.5398 43.5485 19.4775C44.4862 20.4151 45.013 21.6869 45.013 23.013ZM42.8911 34.9244L42.8926 34.9255C42.8944 34.9267 42.8939 34.9264 42.8911 34.9244ZM37.1334 34.9255L37.1349 34.9244C37.1337 34.9252 37.133 34.9258 37.1326 34.926L37.1334 34.9255Z" stroke="#FF0000" stroke-width="10" stroke-linecap="round" stroke-linejoin="round"/>
<circle cx="40.513" cy="22.513" r="3.5" fill="black"/>
</svg>
